# xmcd
#
# Track frame offsets:
#	182
#	12450
#	24755
#	39087
#	50720
#	65402
#	77507
#	87945
#	99040
#	111030
#	121877
#	133100
#	143160
#	154635
#	166120
#	180420
#	195930
#	206472
#	219730
#	232110
#	241365
#	255227
#	268162
#
# Disc length: 3806 seconds
#
# Revision: 14
# Processed by: cddbd v1.5.2PL0 Copyright (c) Steve Scherf et al.
# Submitted via: audiograbber 1.83.01
#
DISCID=240edc17
DTITLE=Seekers - The Very Best Of 
DYEAR=1998
DGENRE=Oldies
TTITLE0=I'll Never Find Another You
TTITLE1=A World Of Our Own
TTITLE2=The Carnival Is Over
TTITLE3=Someday One Day
TTITLE4=Walk With Me
TTITLE5=Morningtown Ride
TTITLE6=Georgy Girl
TTITLE7=When Will The Good Apples Fall
TTITLE8=Emerald City
TTITLE9=We Shall Not Be Moved
TTITLE10=Island Of Dreams
TTITLE11=Open Up Them Pearly Gates
TTITLE12=Kumbaya
TTITLE13=Blowin' In The Wind
TTITLE14=The Wreck Of The Old '97
TTITLE15=Lemon Tree
TTITLE16=Whisky In The Jar
TTITLE17=Five Hundred Miles
TTITLE18=The Gypsy Rover (The Whistling Gypsy)
TTITLE19=South Australia
TTITLE20=Danny Boy
TTITLE21=Waltzing Matilda
TTITLE22=The Water Is Wide
EXTD=
EXTT0=
EXTT1=
EXTT2=
EXTT3=
EXTT4=
EXTT5=
EXTT6=
EXTT7=
EXTT8=
EXTT9=
EXTT10=
EXTT11=
EXTT12=
EXTT13=
EXTT14=
EXTT15=
EXTT16=
EXTT17=
EXTT18=
EXTT19=
EXTT20=
EXTT21=
EXTT22=
PLAYORDER=
